<?xml version="1.0" encoding="UTF-8"?>
<svg xmlns="http://www.w3.org/2000/svg" xmlns:xlink="http://www.w3.org/1999/xlink" width="48pt" height="48pt" viewBox="0 0 48 48" version="1.1">
<g id="surface1">
<path style=" stroke:none;fill-rule:nonzero;fill:rgb(0%,0%,0%);fill-opacity:1;" d="M 45.804688 11.632812 C 45.28125 9.414062 43.738281 7.667969 41.78125 7.078125 C 38.230469 6 24 6 24 6 C 24 6 9.769531 6 6.21875 7.078125 C 4.261719 7.667969 2.71875 9.414062 2.195312 11.632812 C 1.246094 15.652344 1.246094 24.035156 1.246094 24.035156 C 1.246094 24.035156 1.246094 32.421875 2.195312 36.441406 C 2.71875 38.65625 4.261719 40.332031 6.21875 40.921875 C 9.769531 42 24 42 24 42 C 24 42 38.230469 42 41.78125 40.921875 C 43.738281 40.332031 45.28125 38.65625 45.804688 36.441406 C 46.753906 32.421875 46.753906 24.035156 46.753906 24.035156 C 46.753906 24.035156 46.753906 15.652344 45.804688 11.632812 Z M 19.34375 31.648438 L 19.34375 16.421875 L 31.242188 24.035156 Z M 19.34375 31.648438 "/>
</g>
</svg>
